<svg xmlns="http://www.w3.org/2000/svg" viewBox="0 0 28 28"><title>mediteran</title><circle cx="14" cy="14" r="14" style="fill:#231f20"/><path d="M12.48,13.8a4.22,4.22,0,0,0-.38-2.09,1.4,1.4,0,0,0-1.3-.61l-.59,0-.6.07v8.3h-3V9.11c.26-.06.56-.14.91-.21s.71-.14,1.1-.21.79-.1,1.2-.14.81-.05,1.2-.05a5.08,5.08,0,0,1,1.9.3,4.11,4.11,0,0,1,1.19.7,5.79,5.79,0,0,1,3.07-1,5.3,5.3,0,0,1,2.11.36,3.08,3.08,0,0,1,1.32,1,3.9,3.9,0,0,1,.68,1.55,10.28,10.28,0,0,1,.18,2V19.5h-3V13.8A4.22,4.22,0,0,0,18,11.71a1.41,1.41,0,0,0-1.3-.61,2.91,2.91,0,0,0-.69.12,2.4,2.4,0,0,0-.72.31,5.11,5.11,0,0,1,.18,1c0,.35,0,.72,0,1.11V19.5h-3Z" style="fill:#fff"/></svg>
